<svg xmlns="http://www.w3.org/2000/svg" xmlns:xlink="http://www.w3.org/1999/xlink" width="343" zoomAndPan="magnify" viewBox="0 0 257.25 42" height="56" preserveAspectRatio="xMidYMid meet" version="1.0"><defs><clipPath id="23b0d9ca26"><path d="M 2.625 0 L 253.890625 0 L 253.890625 41.023438 L 2.625 41.023438 Z M 2.625 0 " clip-rule="nonzero"/></clipPath><clipPath id="591a397b4a"><path d="M 96.484375 1.019531 L 135.308594 1.019531 L 135.308594 39.84375 L 96.484375 39.84375 Z M 96.484375 1.019531 " clip-rule="nonzero"/></clipPath><clipPath id="b00c2b3940"><path d="M 104 6 L 128 6 L 128 33 L 104 33 Z M 104 6 " clip-rule="nonzero"/></clipPath><clipPath id="f232bb83c0"><path d="M 97.007812 20.511719 C 97.007812 30.980469 105.492188 39.464844 115.960938 39.464844 L 115.992188 39.464844 C 126.460938 39.464844 134.945312 30.980469 134.945312 20.511719 C 134.945312 10.042969 126.460938 1.558594 115.992188 1.558594 L 115.960938 1.558594 C 105.492188 1.558594 97.007812 10.042969 97.007812 20.511719 Z M 97.007812 20.511719 " clip-rule="nonzero"/></clipPath><clipPath id="b2ba112957"><path d="M 97.007812 1.558594 L 135 1.558594 L 135 39.652344 L 97.007812 39.652344 Z M 97.007812 1.558594 " clip-rule="nonzero"/></clipPath><clipPath id="adcdccf85f"><path d="M 97.007812 20.511719 C 97.007812 30.980469 105.492188 39.464844 115.960938 39.464844 L 115.992188 39.464844 C 126.460938 39.464844 134.945312 30.980469 134.945312 20.511719 C 134.945312 10.042969 126.460938 1.558594 115.992188 1.558594 L 115.960938 1.558594 C 105.492188 1.558594 97.007812 10.042969 97.007812 20.511719 Z M 97.007812 20.511719 " clip-rule="nonzero"/></clipPath></defs><g clip-path="url(#23b0d9ca26)"><path fill="#ffffff" d="M 2.625 0 L 253.890625 0 L 253.890625 41.023438 L 2.625 41.023438 Z M 2.625 0 " fill-opacity="1" fill-rule="nonzero"/><path fill="#ffffff" d="M 2.625 0 L 253.890625 0 L 253.890625 41.023438 L 2.625 41.023438 Z M 2.625 0 " fill-opacity="1" fill-rule="nonzero"/></g><path fill="#255247" d="M 118.792969 22.851562 L 112.855469 22.851562 C 112.425781 22.851562 112.078125 22.5 112.078125 22.070312 L 112.078125 18.953125 C 112.078125 18.519531 112.425781 18.171875 112.855469 18.171875 L 119.09375 18.171875 C 119.523438 18.171875 119.875 17.820312 119.875 17.390625 C 119.875 16.960938 119.523438 16.613281 119.09375 16.613281 L 112.855469 16.613281 C 112.425781 16.613281 112.078125 16.261719 112.078125 15.832031 L 112.078125 13.492188 C 112.078125 13.0625 111.726562 12.714844 111.296875 12.714844 C 110.867188 12.714844 110.515625 13.0625 110.515625 13.492188 L 110.515625 22.851562 C 110.515625 23.710938 111.214844 24.410156 112.078125 24.410156 L 118.316406 24.410156 C 118.523438 24.410156 118.71875 24.492188 118.867188 24.636719 L 124.742188 30.511719 C 125.066406 30.839844 125.597656 30.839844 125.921875 30.511719 C 126.257812 30.179688 126.242188 29.621094 125.894531 29.304688 Z M 118.792969 22.851562 " fill-opacity="1" fill-rule="nonzero"/><path fill="#255247" d="M 112.855469 9.59375 C 112.855469 9.800781 112.816406 10 112.738281 10.191406 C 112.660156 10.382812 112.546875 10.550781 112.398438 10.699219 C 112.253906 10.84375 112.085938 10.957031 111.894531 11.035156 C 111.703125 11.113281 111.503906 11.152344 111.296875 11.152344 C 111.089844 11.152344 110.890625 11.113281 110.699219 11.035156 C 110.507812 10.957031 110.339844 10.84375 110.195312 10.699219 C 110.046875 10.550781 109.933594 10.382812 109.855469 10.191406 C 109.777344 10 109.738281 9.800781 109.738281 9.59375 C 109.738281 9.386719 109.777344 9.1875 109.855469 8.996094 C 109.933594 8.808594 110.046875 8.636719 110.195312 8.492188 C 110.339844 8.347656 110.507812 8.234375 110.699219 8.152344 C 110.890625 8.074219 111.089844 8.035156 111.296875 8.035156 C 111.503906 8.035156 111.703125 8.074219 111.894531 8.152344 C 112.085938 8.234375 112.253906 8.347656 112.398438 8.492188 C 112.546875 8.636719 112.660156 8.808594 112.738281 8.996094 C 112.816406 9.1875 112.855469 9.386719 112.855469 9.59375 Z M 112.855469 9.59375 " fill-opacity="1" fill-rule="nonzero"/><path fill="#255247" d="M 112.078125 25.96875 C 110.355469 25.96875 108.957031 24.570312 108.957031 22.851562 L 108.957031 18.59375 C 107.035156 19.878906 105.839844 22.042969 105.839844 24.410156 C 105.839844 28.277344 108.988281 31.425781 112.855469 31.425781 C 115.648438 31.425781 118.148438 29.753906 119.257812 27.234375 L 117.992188 25.96875 Z M 112.078125 25.96875 " fill-opacity="1" fill-rule="nonzero"/><g clip-path="url(#591a397b4a)"><path fill="#255247" d="M 115.976562 1.019531 C 105.226562 1.019531 96.484375 9.761719 96.484375 20.511719 C 96.484375 31.257812 105.226562 40.003906 115.976562 40.003906 C 126.722656 40.003906 135.46875 31.257812 135.46875 20.511719 C 135.46875 9.761719 126.722656 1.019531 115.976562 1.019531 Z M 127.023438 31.617188 C 126.558594 32.082031 125.945312 32.316406 125.332031 32.316406 C 124.71875 32.316406 124.105469 32.082031 123.640625 31.617188 L 120.4375 28.414062 C 118.972656 31.1875 116.0625 32.984375 112.855469 32.984375 C 108.128906 32.984375 104.28125 29.136719 104.28125 24.410156 C 104.28125 21.175781 106.101562 18.234375 108.957031 16.777344 L 108.957031 13.492188 C 108.957031 12.964844 109.140625 12.480469 109.441406 12.085938 C 108.679688 11.515625 108.179688 10.617188 108.179688 9.59375 C 108.179688 7.875 109.578125 6.476562 111.296875 6.476562 C 113.015625 6.476562 114.414062 7.875 114.414062 9.59375 C 114.414062 10.617188 113.914062 11.515625 113.152344 12.085938 C 113.453125 12.480469 113.636719 12.964844 113.636719 13.492188 L 113.636719 15.050781 L 119.09375 15.050781 C 120.382812 15.050781 121.433594 16.101562 121.433594 17.390625 C 121.433594 18.683594 120.382812 19.730469 119.09375 19.730469 L 113.636719 19.730469 L 113.636719 21.289062 L 119.09375 21.289062 C 119.289062 21.289062 119.476562 21.363281 119.617188 21.492188 C 119.617188 21.492188 126.933594 28.144531 126.941406 28.152344 C 127.941406 29.058594 127.980469 30.664062 127.023438 31.617188 Z M 127.023438 31.617188 " fill-opacity="1" fill-rule="nonzero"/></g><g clip-path="url(#b00c2b3940)"><g clip-path="url(#f232bb83c0)"><path fill="#ffffff" d="M 109.144531 16.894531 C 106.367188 18.3125 104.59375 21.171875 104.59375 24.320312 C 104.59375 28.921875 108.335938 32.664062 112.9375 32.664062 C 116.058594 32.664062 118.890625 30.914062 120.3125 28.214844 L 123.429688 31.332031 C 123.882812 31.785156 124.480469 32.011719 125.078125 32.011719 C 125.671875 32.011719 126.269531 31.785156 126.722656 31.332031 C 127.652344 30.402344 127.617188 28.84375 126.644531 27.960938 L 119.300781 21.285156 L 113.699219 21.285156 L 113.699219 19.769531 L 119.007812 19.769531 C 120.261719 19.769531 121.285156 18.746094 121.285156 17.492188 C 121.285156 16.238281 120.261719 15.214844 119.007812 15.214844 L 113.699219 15.214844 L 113.699219 13.699219 C 113.699219 13.183594 113.519531 12.710938 113.226562 12.328125 C 113.96875 11.777344 114.457031 10.898438 114.457031 9.90625 C 114.457031 8.230469 113.09375 6.871094 111.421875 6.871094 C 109.75 6.871094 108.386719 8.230469 108.386719 9.90625 C 108.386719 10.898438 108.875 11.777344 109.613281 12.328125 C 109.324219 12.710938 109.144531 13.183594 109.144531 13.699219 Z M 119.007812 16.734375 C 119.425781 16.734375 119.765625 17.074219 119.765625 17.492188 C 119.765625 17.910156 119.425781 18.25 119.007812 18.25 L 112.179688 18.25 L 112.179688 22.800781 L 118.714844 22.800781 C 118.714844 22.800781 125.613281 29.074219 125.625 29.082031 C 125.964844 29.394531 125.976562 29.933594 125.652344 30.257812 C 125.335938 30.574219 124.820312 30.574219 124.503906 30.257812 L 118.5625 24.320312 L 112.179688 24.320312 C 111.34375 24.320312 110.664062 23.640625 110.664062 22.800781 L 110.664062 13.699219 C 110.664062 13.28125 111.003906 12.941406 111.421875 12.941406 C 111.839844 12.941406 112.179688 13.28125 112.179688 13.699219 L 112.179688 16.734375 Z M 111.421875 8.386719 C 112.257812 8.386719 112.9375 9.070312 112.9375 9.90625 C 112.9375 10.742188 112.257812 11.421875 111.421875 11.421875 C 110.585938 11.421875 109.902344 10.742188 109.902344 9.90625 C 109.902344 9.070312 110.585938 8.386719 111.421875 8.386719 Z M 112.179688 25.835938 L 117.933594 25.835938 L 119.164062 27.066406 C 118.089844 29.519531 115.652344 31.148438 112.9375 31.148438 C 109.175781 31.148438 106.109375 28.085938 106.109375 24.320312 C 106.109375 22.019531 107.277344 19.914062 109.144531 18.660156 L 109.144531 22.800781 C 109.144531 24.476562 110.507812 25.835938 112.179688 25.835938 Z M 112.179688 25.835938 " fill-opacity="1" fill-rule="nonzero"/></g></g><g clip-path="url(#b2ba112957)"><g clip-path="url(#adcdccf85f)"><path fill="#ffffff" d="M 115.972656 1.558594 C 105.515625 1.558594 97.007812 10.070312 97.007812 20.527344 C 97.007812 30.324219 104.644531 38.621094 114.394531 39.421875 C 114.8125 39.457031 115.179688 39.144531 115.210938 38.726562 C 115.246094 38.3125 114.9375 37.945312 114.519531 37.910156 C 105.550781 37.175781 98.523438 29.539062 98.523438 20.527344 C 98.523438 10.90625 106.351562 3.078125 115.972656 3.078125 C 125.59375 3.078125 133.421875 10.90625 133.421875 20.527344 C 133.421875 29.539062 126.398438 37.175781 117.429688 37.910156 C 117.011719 37.945312 116.699219 38.3125 116.734375 38.726562 C 116.765625 39.125 117.097656 39.425781 117.488281 39.425781 C 117.511719 39.425781 117.53125 39.425781 117.554688 39.421875 C 127.300781 38.621094 134.941406 30.324219 134.941406 20.527344 C 134.941406 10.070312 126.433594 1.558594 115.972656 1.558594 Z M 115.972656 1.558594 " fill-opacity="1" fill-rule="nonzero"/></g></g></svg>